<svg width="421" height="486" viewBox="0 0 421 486" fill="none" xmlns="http://www.w3.org/2000/svg">
<rect x="10" y="10" width="401" height="466" fill="#121212"/>
<rect x="10" y="10" width="401" height="466" stroke="white" stroke-width="20"/>
<path d="M113.395 63.5455V209H82.642V63.5455H113.395ZM257.553 63.5455L292.71 174.057H294.059L329.286 63.5455H363.377L313.235 209H273.604L223.391 63.5455H257.553Z" fill="white"/>
<path d="M72.7131 437H39.7585L89.9716 291.545H129.602L179.744 437H146.79L110.355 324.784H109.219L72.7131 437ZM70.6534 379.827H148.494V403.832H70.6534V379.827ZM365.202 291.545V437H338.64L275.359 345.452H274.293V437H243.54V291.545H270.529L333.313 383.023H334.592V291.545H365.202Z" fill="white"/>
</svg>
